<svg width="68" height="69" viewBox="0 0 68 69" fill="none" xmlns="http://www.w3.org/2000/svg">
<rect x="0.683594" y="0.769714" width="67.3156" height="67.6438" rx="13.8174" fill="#1E1E1E"/>
<path d="M17.8401 36.4955C17.8401 36.9704 17.8929 37.498 17.9984 38.0784C18.1303 38.6325 18.3546 39.1469 18.6712 39.6218C19.0141 40.0967 19.4627 40.5056 20.0167 40.8486C20.5971 41.1652 21.349 41.3235 22.2724 41.3235H38.0228C38.9199 41.3235 39.6586 41.1652 40.239 40.8486C40.8194 40.5056 41.2679 40.0967 41.5845 39.6218C41.9275 39.1469 42.1517 38.6325 42.2573 38.0784C42.3892 37.498 42.4551 36.9704 42.4551 36.4955V29.7679C42.4551 29.2402 42.6398 28.7917 43.0092 28.4224C43.3785 28.053 43.827 27.8683 44.3547 27.8683C44.8823 27.8683 45.3308 28.053 45.7002 28.4224C46.0695 28.7917 46.2542 29.2402 46.2542 29.7679V36.4955C46.2542 37.498 46.0827 38.5137 45.7398 39.5427C45.4232 40.5452 44.9483 41.4686 44.3151 42.3128C43.6819 43.1307 42.9168 43.8035 42.0198 44.3311C41.1228 44.8588 40.1071 45.1226 38.9726 45.1226H20.9269C19.8452 45.0698 18.8822 44.7796 18.038 44.252C17.1937 43.6979 16.4682 43.012 15.8614 42.1941C15.281 41.3763 14.8325 40.4661 14.5159 39.4635C14.1993 38.461 14.041 37.4716 14.041 36.4955V29.7679C14.041 29.2402 14.2257 28.7917 14.5951 28.4224C14.9644 28.053 15.4129 27.8683 15.9406 27.8683C16.4682 27.8683 16.9167 28.053 17.2861 28.4224C17.6554 28.7917 17.8401 29.2402 17.8401 29.7679V36.4955Z" fill="white"/>
<path d="M53.6175 43.223C53.6175 43.7507 53.4328 44.1992 53.0634 44.5686C52.6941 44.9379 52.2456 45.1226 51.7179 45.1226C51.1903 45.1226 50.7417 44.9379 50.3724 44.5686C50.003 44.1992 49.8184 43.7507 49.8184 43.223V29.7679C49.8184 29.2402 50.003 28.7917 50.3724 28.4224C50.7417 28.053 51.1903 27.8683 51.7179 27.8683C52.2456 27.8683 52.6941 28.053 53.0634 28.4224C53.4328 28.7917 53.6175 29.2402 53.6175 29.7679V43.223Z" fill="white"/>
</svg>
