<svg width="250" height="25" viewBox="0 0 250 25" fill="none" xmlns="http://www.w3.org/2000/svg">
<path d="M42.8648 21.8461C42.8648 22.572 42.6093 23.1889 42.0984 23.697C41.5874 24.2051 40.967 24.4592 40.2371 24.4592C39.5071 24.4592 38.8867 24.2051 38.3758 23.697C37.8648 23.1889 37.6093 22.572 37.6093 21.8461V20.5941C37.5728 19.5053 37.3174 18.6161 36.8429 17.9266C36.3685 17.2007 35.8028 16.6382 35.1458 16.239C34.4889 15.8398 33.7772 15.5676 33.0108 15.4224C32.2444 15.2773 31.551 15.2047 30.9305 15.2047H21.624H21.4598H21.2408H11.9343C10.8029 15.2047 9.65324 15.0595 8.48537 14.7692C7.35398 14.4788 6.27735 14.0433 5.25545 13.4627V21.8461C5.25545 22.572 4.99998 23.1889 4.48903 23.697C3.97809 24.2051 3.35765 24.4592 2.62773 24.4592C1.8978 24.4592 1.27737 24.2051 0.76642 23.697C0.255473 23.1889 0 22.572 0 21.8461V3.33715C0 2.61131 0.255473 1.99434 0.76642 1.48626C1.27737 0.978167 1.8978 0.724121 2.62773 0.724121C3.35765 0.724121 3.97809 0.978167 4.48903 1.48626C4.99998 1.99434 5.25545 2.61131 5.25545 3.33715V4.2626C5.25545 5.42395 5.47443 6.38569 5.91238 7.14783C6.38684 7.87367 6.95253 8.45434 7.60946 8.88985C8.30289 9.28906 9.03281 9.5794 9.79923 9.76086C10.5657 9.90603 11.2773 9.97861 11.9343 9.97861H21.405H21.4598H21.624H30.9305C32.0619 9.97861 33.1933 10.1238 34.3247 10.4141C35.4926 10.7045 36.5874 11.14 37.6093 11.7206V3.33715C37.6093 2.61131 37.8648 1.99434 38.3758 1.48626C38.8867 0.978167 39.5071 0.724121 40.2371 0.724121C40.967 0.724121 41.5874 0.978167 42.0984 1.48626C42.6093 1.99434 42.8648 2.61131 42.8648 3.33715V21.8461Z" fill="url(#paint0_linear_653_1541)"/>
<path d="M47.8363 3.33715C47.8363 2.61131 48.0917 1.99434 48.6027 1.48626C49.1136 0.978167 49.7341 0.724121 50.464 0.724121H89.2777C90.0076 0.724121 90.628 0.978167 91.139 1.48626C91.6499 1.99434 91.9054 2.61131 91.9054 3.33715C91.9054 4.06299 91.6499 4.67996 91.139 5.18805C90.628 5.69614 90.0076 5.95019 89.2777 5.95019H50.464C49.7341 5.95019 49.1136 5.69614 48.6027 5.18805C48.0917 4.67996 47.8363 4.06299 47.8363 3.33715ZM54.5151 24.4592C53.7121 24.4592 52.9092 24.2959 52.1063 23.9692C51.3034 23.6063 50.5917 23.1164 49.9713 22.4994C49.3508 21.8824 48.8399 21.1384 48.4384 20.2674C48.037 19.3964 47.8363 18.4165 47.8363 17.3278V12.4283C47.8363 11.4484 48.11 10.7952 48.6574 10.4686C49.2414 10.1419 50.1355 9.97861 51.3399 9.97861H88.0733C88.8032 9.97861 89.4237 10.2327 89.9346 10.7407C90.4456 11.2488 90.701 11.8658 90.701 12.5916C90.701 13.3175 90.4456 13.9345 89.9346 14.4425C89.4237 14.9506 88.8032 15.2047 88.0733 15.2047H53.0917V17.8722C53.0917 18.2351 53.2377 18.5617 53.5297 18.852C53.8581 19.1061 54.2778 19.2331 54.7888 19.2331H89.2777C90.0076 19.2331 90.628 19.4871 91.139 19.9952C91.6499 20.5033 91.9054 21.1203 91.9054 21.8461C91.9054 22.572 91.6499 23.1889 91.139 23.697C90.628 24.2051 90.0076 24.4592 89.2777 24.4592H54.5151Z" fill="url(#paint1_linear_653_1541)"/>
<path d="M104.347 24.4592C103.325 24.4592 102.358 24.2777 101.446 23.9148C100.533 23.5156 99.7306 22.9893 99.0371 22.3361C98.3802 21.6828 97.851 20.9207 97.4496 20.0497C97.0481 19.1787 96.8474 18.2351 96.8474 17.2189V3.33715C96.8474 2.61131 97.1029 1.99434 97.6138 1.48626C98.1247 0.978167 98.7452 0.724121 99.4751 0.724121C100.169 0.724121 100.771 0.978167 101.282 1.48626C101.829 1.99434 102.103 2.61131 102.103 3.33715V17.2189C102.103 17.7633 102.304 18.2351 102.705 18.6343C103.143 19.0335 103.636 19.2331 104.183 19.2331H137.03C137.76 19.2331 138.38 19.4871 138.891 19.9952C139.402 20.5033 139.657 21.1203 139.657 21.8461C139.657 22.572 139.402 23.1889 138.891 23.697C138.38 24.2051 137.76 24.4592 137.03 24.4592H104.347Z" fill="url(#paint2_linear_653_1541)"/>
<path d="M149.831 21.8461C149.831 22.572 149.575 23.1889 149.064 23.697C148.554 24.2051 147.933 24.4592 147.203 24.4592C146.473 24.4592 145.853 24.2051 145.342 23.697C144.831 23.1889 144.575 22.572 144.575 21.8461V3.33715C144.575 2.61131 144.831 1.99434 145.342 1.48626C145.853 0.978167 146.473 0.724121 147.203 0.724121C147.933 0.724121 148.554 0.978167 149.064 1.48626C149.575 1.99434 149.831 2.61131 149.831 3.33715V21.8461Z" fill="url(#paint3_linear_653_1541)"/>
<path d="M188.113 19.2331C189.354 19.2331 190.376 19.0153 191.179 18.5798C191.982 18.108 192.602 17.5455 193.04 16.8923C193.514 16.239 193.825 15.5313 193.971 14.7692C194.153 13.9707 194.244 13.2449 194.244 12.5916C194.244 11.9384 194.153 11.2307 193.971 10.4686C193.825 9.67013 193.514 8.94429 193.04 8.29103C192.602 7.63777 191.982 7.09339 191.179 6.65788C190.376 6.18608 189.354 5.95019 188.113 5.95019H165.996C164.719 5.95019 163.679 6.18608 162.876 6.65788C162.109 7.09339 161.489 7.63777 161.015 8.29103C160.577 8.94429 160.266 9.67013 160.084 10.4686C159.938 11.2307 159.865 11.9384 159.865 12.5916C159.865 13.2449 159.938 13.9707 160.084 14.7692C160.266 15.5313 160.577 16.239 161.015 16.8923C161.489 17.5455 162.109 18.108 162.876 18.5798C163.679 19.0153 164.719 19.2331 165.996 19.2331H188.113ZM199.336 12.5916C199.336 13.9707 199.098 15.368 198.624 16.7834C198.186 18.1625 197.529 19.4327 196.653 20.5941C195.777 21.7191 194.719 22.6446 193.478 23.3704C192.237 24.0962 190.832 24.4592 189.263 24.4592H164.299C162.803 24.3866 161.471 23.9874 160.303 23.2615C159.135 22.4994 158.131 21.5558 157.292 20.4307C156.489 19.3057 155.869 18.0536 155.431 16.6745C154.993 15.2954 154.774 13.9345 154.774 12.5916C154.774 11.2125 154.993 9.83344 155.431 8.45434C155.905 7.03895 156.58 5.76873 157.456 4.64367C158.332 3.48232 159.39 2.53873 160.631 1.81288C161.872 1.08704 163.277 0.724121 164.847 0.724121H189.81C191.306 0.796704 192.638 1.21406 193.806 1.9762C194.974 2.70204 195.96 3.62749 196.763 4.75255C197.602 5.8776 198.241 7.12968 198.679 8.50878C199.117 9.88788 199.336 11.2488 199.336 12.5916Z" fill="url(#paint4_linear_653_1541)"/>
<path d="M211.547 15.2047C210.525 15.2047 209.576 15.0232 208.7 14.6603C207.824 14.2611 207.058 13.7348 206.401 13.0816C205.744 12.4283 205.215 11.6662 204.813 10.7952C204.448 9.92417 204.266 8.98058 204.266 7.9644C204.266 6.94822 204.448 6.00462 204.813 5.13361C205.215 4.2626 205.744 3.50047 206.401 2.84721C207.058 2.19395 207.824 1.68586 208.7 1.32294C209.576 0.923728 210.525 0.724121 211.547 0.724121H244.777C245.507 0.724121 246.127 0.978167 246.638 1.48626C247.149 1.99434 247.404 2.61131 247.404 3.33715C247.404 4.06299 247.149 4.67996 246.638 5.18805C246.127 5.69614 245.507 5.95019 244.777 5.95019H211.437C210.89 5.95019 210.397 6.14979 209.959 6.54901C209.558 6.91193 209.357 7.38373 209.357 7.9644C209.357 8.50878 209.558 8.98058 209.959 9.37979C210.397 9.779 210.89 9.97861 211.437 9.97861H241.711C242.733 9.97861 243.682 10.1782 244.558 10.5774C245.47 10.9404 246.255 11.4484 246.912 12.1017C247.569 12.755 248.08 13.5352 248.445 14.4425C248.846 15.3136 249.047 16.2572 249.047 17.2733C249.047 18.2895 248.846 19.2331 248.445 20.1041C248.08 20.9751 247.569 21.7373 246.912 22.3905C246.255 23.0438 245.47 23.5519 244.558 23.9148C243.682 24.2777 242.733 24.4592 241.711 24.4592H208.536C207.806 24.4592 207.186 24.2051 206.675 23.697C206.164 23.1889 205.908 22.572 205.908 21.8461C205.908 21.1203 206.164 20.5033 206.675 19.9952C207.186 19.4871 207.806 19.2331 208.536 19.2331H241.93C242.477 19.2331 242.952 19.0516 243.353 18.6887C243.755 18.2895 243.956 17.8177 243.956 17.2733C243.956 16.6927 243.755 16.2027 243.353 15.8035C242.952 15.4043 242.477 15.2047 241.93 15.2047H211.547Z" fill="url(#paint5_linear_653_1541)"/>
<defs>
<linearGradient id="paint0_linear_653_1541" x1="285.497" y1="0.724119" x2="-31.8202" y2="45.9081" gradientUnits="userSpaceOnUse">
<stop stop-color="#336BE6"/>
<stop offset="1" stop-color="#DDECF1"/>
</linearGradient>
<linearGradient id="paint1_linear_653_1541" x1="285.497" y1="0.724119" x2="-31.8202" y2="45.9081" gradientUnits="userSpaceOnUse">
<stop stop-color="#336BE6"/>
<stop offset="1" stop-color="#DDECF1"/>
</linearGradient>
<linearGradient id="paint2_linear_653_1541" x1="285.497" y1="0.724119" x2="-31.8202" y2="45.9081" gradientUnits="userSpaceOnUse">
<stop stop-color="#336BE6"/>
<stop offset="1" stop-color="#DDECF1"/>
</linearGradient>
<linearGradient id="paint3_linear_653_1541" x1="285.497" y1="0.724119" x2="-31.8202" y2="45.9081" gradientUnits="userSpaceOnUse">
<stop stop-color="#336BE6"/>
<stop offset="1" stop-color="#DDECF1"/>
</linearGradient>
<linearGradient id="paint4_linear_653_1541" x1="285.497" y1="0.724119" x2="-31.8202" y2="45.9081" gradientUnits="userSpaceOnUse">
<stop stop-color="#336BE6"/>
<stop offset="1" stop-color="#DDECF1"/>
</linearGradient>
<linearGradient id="paint5_linear_653_1541" x1="285.497" y1="0.724119" x2="-31.8202" y2="45.9081" gradientUnits="userSpaceOnUse">
<stop stop-color="#336BE6"/>
<stop offset="1" stop-color="#DDECF1"/>
</linearGradient>
</defs>
</svg>
