<svg width="19" height="14" viewBox="0 0 19 14" fill="none" xmlns="http://www.w3.org/2000/svg">
<path fill-rule="evenodd" clip-rule="evenodd" d="M1.44799 0H17.552C18.073 0 18.5 0.427 18.5 0.948V1.052C18.5 1.573 18.073 2 17.552 2H1.44799C0.926988 2 0.499988 1.573 0.499988 1.052V0.948C0.499988 0.427 0.926988 0 1.44799 0ZM17.552 6H3.41399L4.70699 4.707C5.09799 4.316 5.09799 3.684 4.70699 3.293C4.31699 2.902 3.68399 2.902 3.29299 3.293L0.292988 6.293C-0.0970117 6.684 -0.0970117 7.316 0.292988 7.707L3.29299 10.707C3.48899 10.902 3.74399 11 3.99999 11C4.25599 11 4.51199 10.902 4.70699 10.707C5.09799 10.316 5.09799 9.684 4.70699 9.293L3.41399 8H17.552C18.073 8 18.5 7.573 18.5 7.052V6.948C18.5 6.427 18.073 6 17.552 6ZM17.552 12H1.44799C0.926988 12 0.499988 12.427 0.499988 12.948V13.052C0.499988 13.573 0.926988 14 1.44799 14H17.552C18.073 14 18.5 13.573 18.5 13.052V12.948C18.5 12.427 18.073 12 17.552 12Z" fill="white"/>
</svg>
