<svg width="122" height="27" viewBox="0 0 122 27" fill="none" xmlns="http://www.w3.org/2000/svg">
<path d="M16.1905 16.862C16.1905 17.1362 16.094 17.3692 15.901 17.5611C15.708 17.753 15.4736 17.849 15.1979 17.849C14.9222 17.849 14.6879 17.753 14.4949 17.5611C14.3019 17.3692 14.2054 17.1362 14.2054 16.862V16.3891C14.1916 15.9779 14.0951 15.642 13.9159 15.3816C13.7367 15.1074 13.5231 14.8949 13.2749 14.7442C13.0268 14.5934 12.758 14.4906 12.4685 14.4357C12.179 14.3809 11.9171 14.3535 11.6828 14.3535H8.1676H8.10557H8.02286H4.50769C4.08035 14.3535 3.64613 14.2987 3.20501 14.189C2.77767 14.0793 2.37102 13.9148 1.98504 13.6955V16.862C1.98504 17.1362 1.88854 17.3692 1.69555 17.5611C1.50256 17.753 1.26822 17.849 0.992519 17.849C0.716819 17.849 0.482474 17.753 0.289485 17.5611C0.0964949 17.3692 0 17.1362 0 16.862V9.871C0 9.59684 0.0964949 9.36381 0.289485 9.1719C0.482474 8.97999 0.716819 8.88403 0.992519 8.88403C1.26822 8.88403 1.50256 8.97999 1.69555 9.1719C1.88854 9.36381 1.98504 9.59684 1.98504 9.871V10.2206C1.98504 10.6592 2.06775 11.0225 2.23317 11.3103C2.41237 11.5845 2.62604 11.8038 2.87417 11.9683C3.13608 12.1191 3.41178 12.2288 3.70127 12.2973C3.99075 12.3521 4.25956 12.3795 4.50769 12.3795H8.08489H8.10557H8.1676H11.6828C12.1101 12.3795 12.5374 12.4344 12.9648 12.544C13.4059 12.6537 13.8194 12.8182 14.2054 13.0375V9.871C14.2054 9.59684 14.3019 9.36381 14.4949 9.1719C14.6879 8.97999 14.9222 8.88403 15.1979 8.88403C15.4736 8.88403 15.708 8.97999 15.901 9.1719C16.094 9.36381 16.1905 9.59684 16.1905 9.871V16.862Z" fill="url(#paint0_linear_640_1881)"/>
<path d="M18.0682 9.871C18.0682 9.59684 18.1647 9.36381 18.3577 9.1719C18.5507 8.97999 18.7851 8.88403 19.0608 8.88403H33.7211C33.9968 8.88403 34.2311 8.97999 34.4241 9.1719C34.6171 9.36381 34.7136 9.59684 34.7136 9.871C34.7136 10.1452 34.6171 10.3782 34.4241 10.5701C34.2311 10.762 33.9968 10.858 33.7211 10.858H19.0608C18.7851 10.858 18.5507 10.762 18.3577 10.5701C18.1647 10.3782 18.0682 10.1452 18.0682 9.871ZM20.5909 17.849C20.2876 17.849 19.9843 17.7873 19.6811 17.6639C19.3778 17.5269 19.109 17.3418 18.8747 17.1088C18.6403 16.8757 18.4473 16.5947 18.2957 16.2657C18.1441 15.9367 18.0682 15.5666 18.0682 15.1554V13.3048C18.0682 12.9347 18.1716 12.688 18.3784 12.5646C18.599 12.4412 18.9367 12.3795 19.3916 12.3795H33.2662C33.5419 12.3795 33.7762 12.4755 33.9692 12.6674C34.1622 12.8593 34.2587 13.0924 34.2587 13.3665C34.2587 13.6407 34.1622 13.8737 33.9692 14.0656C33.7762 14.2575 33.5419 14.3535 33.2662 14.3535H20.0533V15.361C20.0533 15.4981 20.1084 15.6215 20.2187 15.7311C20.3428 15.8271 20.5013 15.8751 20.6943 15.8751H33.7211C33.9968 15.8751 34.2311 15.971 34.4241 16.1629C34.6171 16.3548 34.7136 16.5879 34.7136 16.862C34.7136 17.1362 34.6171 17.3692 34.4241 17.5611C34.2311 17.753 33.9968 17.849 33.7211 17.849H20.5909Z" fill="url(#paint1_linear_640_1881)"/>
<path d="M39.413 17.849C39.0271 17.849 38.6618 17.7805 38.3171 17.6434C37.9725 17.4926 37.6692 17.2938 37.4073 17.0471C37.1592 16.8003 36.9593 16.5125 36.8077 16.1835C36.656 15.8545 36.5802 15.4981 36.5802 15.1143V9.871C36.5802 9.59684 36.6767 9.36381 36.8697 9.1719C37.0627 8.97999 37.297 8.88403 37.5727 8.88403C37.8347 8.88403 38.0621 8.97999 38.2551 9.1719C38.4619 9.36381 38.5653 9.59684 38.5653 9.871V15.1143C38.5653 15.3199 38.6411 15.4981 38.7927 15.6489C38.9581 15.7997 39.1442 15.8751 39.351 15.8751H51.7575C52.0332 15.8751 52.2675 15.971 52.4605 16.1629C52.6535 16.3548 52.75 16.5879 52.75 16.862C52.75 17.1362 52.6535 17.3692 52.4605 17.5611C52.2675 17.753 52.0332 17.849 51.7575 17.849H39.413Z" fill="url(#paint2_linear_640_1881)"/>
<path d="M56.5926 16.862C56.5926 17.1362 56.4961 17.3692 56.3031 17.5611C56.1101 17.753 55.8758 17.849 55.6001 17.849C55.3244 17.849 55.0901 17.753 54.8971 17.5611C54.7041 17.3692 54.6076 17.1362 54.6076 16.862V9.871C54.6076 9.59684 54.7041 9.36381 54.8971 9.1719C55.0901 8.97999 55.3244 8.88403 55.6001 8.88403C55.8758 8.88403 56.1101 8.97999 56.3031 9.1719C56.4961 9.36381 56.5926 9.59684 56.5926 9.871V16.862Z" fill="url(#paint3_linear_640_1881)"/>
<path d="M71.0522 15.8751C71.5208 15.8751 71.9068 15.7928 72.2101 15.6283C72.5134 15.4501 72.7477 15.2376 72.9131 14.9909C73.0923 14.7442 73.2095 14.4769 73.2646 14.189C73.3336 13.8874 73.368 13.6133 73.368 13.3665C73.368 13.1198 73.3336 12.8525 73.2646 12.5646C73.2095 12.263 73.0923 11.9889 72.9131 11.7421C72.7477 11.4954 72.5134 11.2898 72.2101 11.1253C71.9068 10.9471 71.5208 10.858 71.0522 10.858H62.6985C62.216 10.858 61.8231 10.9471 61.5198 11.1253C61.2304 11.2898 60.996 11.4954 60.8168 11.7421C60.6514 11.9889 60.5342 12.263 60.4653 12.5646C60.4101 12.8525 60.3826 13.1198 60.3826 13.3665C60.3826 13.6133 60.4101 13.8874 60.4653 14.189C60.5342 14.4769 60.6514 14.7442 60.8168 14.9909C60.996 15.2376 61.2304 15.4501 61.5198 15.6283C61.8231 15.7928 62.216 15.8751 62.6985 15.8751H71.0522ZM75.291 13.3665C75.291 13.8874 75.2014 14.4152 75.0222 14.9498C74.8568 15.4707 74.6087 15.9505 74.2778 16.3891C73.947 16.8141 73.5472 17.1636 73.0785 17.4378C72.6099 17.7119 72.0791 17.849 71.4864 17.849H62.0575C61.4923 17.8216 60.9891 17.6708 60.548 17.3966C60.1069 17.1088 59.7278 16.7524 59.4107 16.3274C59.1075 15.9025 58.8731 15.4296 58.7077 14.9087C58.5423 14.3878 58.4596 13.8737 58.4596 13.3665C58.4596 12.8456 58.5423 12.3247 58.7077 11.8038C58.8869 11.2692 59.1419 10.7894 59.4728 10.3645C59.8036 9.92583 60.2034 9.56943 60.6721 9.29527C61.1407 9.02111 61.6715 8.88403 62.2642 8.88403H71.6932C72.2583 8.91145 72.7615 9.06909 73.2026 9.35696C73.6437 9.63111 74.0159 9.98067 74.3192 10.4056C74.6363 10.8306 74.8775 11.3035 75.0429 11.8244C75.2083 12.3453 75.291 12.8593 75.291 13.3665Z" fill="url(#paint4_linear_640_1881)"/>
<path d="M79.9034 14.3535C79.5174 14.3535 79.159 14.2849 78.8282 14.1479C78.4973 13.9971 78.2078 13.7983 77.9597 13.5516C77.7116 13.3048 77.5117 13.017 77.3601 12.688C77.2222 12.359 77.1533 12.0026 77.1533 11.6188C77.1533 11.2349 77.2222 10.8785 77.3601 10.5495C77.5117 10.2206 77.7116 9.93269 77.9597 9.68594C78.2078 9.4392 78.4973 9.24729 78.8282 9.11021C79.159 8.95943 79.5174 8.88403 79.9034 8.88403H92.4546C92.7303 8.88403 92.9647 8.97999 93.1577 9.1719C93.3507 9.36381 93.4472 9.59684 93.4472 9.871C93.4472 10.1452 93.3507 10.3782 93.1577 10.5701C92.9647 10.762 92.7303 10.858 92.4546 10.858H79.8621C79.6553 10.858 79.4692 10.9334 79.3038 11.0842C79.1521 11.2212 79.0763 11.3994 79.0763 11.6188C79.0763 11.8244 79.1521 12.0026 79.3038 12.1534C79.4692 12.3042 79.6553 12.3795 79.8621 12.3795H91.2967C91.6827 12.3795 92.0411 12.4549 92.3719 12.6057C92.7166 12.7428 93.0129 12.9347 93.2611 13.1815C93.5092 13.4282 93.7022 13.7229 93.84 14.0656C93.9917 14.3946 94.0675 14.751 94.0675 15.1348C94.0675 15.5187 93.9917 15.8751 93.84 16.2041C93.7022 16.533 93.5092 16.8209 93.2611 17.0676C93.0129 17.3144 92.7166 17.5063 92.3719 17.6434C92.0411 17.7805 91.6827 17.849 91.2967 17.849H78.7661C78.4904 17.849 78.2561 17.753 78.0631 17.5611C77.8701 17.3692 77.7736 17.1362 77.7736 16.862C77.7736 16.5879 77.8701 16.3548 78.0631 16.1629C78.2561 15.971 78.4904 15.8751 78.7661 15.8751H91.3794C91.5862 15.8751 91.7654 15.8065 91.917 15.6694C92.0687 15.5187 92.1445 15.3405 92.1445 15.1348C92.1445 14.9155 92.0687 14.7305 91.917 14.5797C91.7654 14.4289 91.5862 14.3535 91.3794 14.3535H79.9034Z" fill="url(#paint5_linear_640_1881)"/>
<rect x="96.5742" y="0.591675" width="25.4258" height="25.5497" rx="5.21897" fill="#1E1E1E"/>
<path d="M103.054 14.0857C103.054 14.2651 103.074 14.4644 103.114 14.6836C103.164 14.8929 103.248 15.0872 103.368 15.2666C103.498 15.4459 103.667 15.6004 103.876 15.7299C104.095 15.8495 104.379 15.9093 104.728 15.9093H110.677C111.016 15.9093 111.295 15.8495 111.514 15.7299C111.734 15.6004 111.903 15.4459 112.023 15.2666C112.152 15.0872 112.237 14.8929 112.277 14.6836C112.327 14.4644 112.351 14.2651 112.351 14.0857V11.5446C112.351 11.3453 112.421 11.1759 112.561 11.0364C112.7 10.8969 112.87 10.8271 113.069 10.8271C113.268 10.8271 113.438 10.8969 113.577 11.0364C113.717 11.1759 113.786 11.3453 113.786 11.5446V14.0857C113.786 14.4644 113.722 14.848 113.592 15.2367C113.472 15.6153 113.293 15.9641 113.054 16.283C112.815 16.5919 112.526 16.846 112.187 17.0453C111.848 17.2446 111.465 17.3443 111.036 17.3443H104.22C103.811 17.3243 103.448 17.2147 103.129 17.0154C102.81 16.8061 102.536 16.5471 102.307 16.2381C102.087 15.9292 101.918 15.5854 101.799 15.2068C101.679 14.8281 101.619 14.4544 101.619 14.0857V11.5446C101.619 11.3453 101.689 11.1759 101.828 11.0364C101.968 10.8969 102.137 10.8271 102.337 10.8271C102.536 10.8271 102.705 10.8969 102.845 11.0364C102.984 11.1759 103.054 11.3453 103.054 11.5446V14.0857Z" fill="white"/>
<path d="M116.568 16.6268C116.568 16.8261 116.498 16.9955 116.358 17.135C116.219 17.2745 116.049 17.3443 115.85 17.3443C115.651 17.3443 115.481 17.2745 115.342 17.135C115.202 16.9955 115.133 16.8261 115.133 16.6268V11.5446C115.133 11.3453 115.202 11.1759 115.342 11.0364C115.481 10.8969 115.651 10.8271 115.85 10.8271C116.049 10.8271 116.219 10.8969 116.358 11.0364C116.498 11.1759 116.568 11.3453 116.568 11.5446V16.6268Z" fill="white"/>
<defs>
<linearGradient id="paint0_linear_640_1881" x1="107.835" y1="8.88403" x2="-12.0188" y2="25.9505" gradientUnits="userSpaceOnUse">
<stop stop-color="#336BE6"/>
<stop offset="1" stop-color="#DDECF1"/>
</linearGradient>
<linearGradient id="paint1_linear_640_1881" x1="107.835" y1="8.88403" x2="-12.0188" y2="25.9505" gradientUnits="userSpaceOnUse">
<stop stop-color="#336BE6"/>
<stop offset="1" stop-color="#DDECF1"/>
</linearGradient>
<linearGradient id="paint2_linear_640_1881" x1="107.835" y1="8.88403" x2="-12.0188" y2="25.9505" gradientUnits="userSpaceOnUse">
<stop stop-color="#336BE6"/>
<stop offset="1" stop-color="#DDECF1"/>
</linearGradient>
<linearGradient id="paint3_linear_640_1881" x1="107.835" y1="8.88403" x2="-12.0188" y2="25.9505" gradientUnits="userSpaceOnUse">
<stop stop-color="#336BE6"/>
<stop offset="1" stop-color="#DDECF1"/>
</linearGradient>
<linearGradient id="paint4_linear_640_1881" x1="107.835" y1="8.88403" x2="-12.0188" y2="25.9505" gradientUnits="userSpaceOnUse">
<stop stop-color="#336BE6"/>
<stop offset="1" stop-color="#DDECF1"/>
</linearGradient>
<linearGradient id="paint5_linear_640_1881" x1="107.835" y1="8.88403" x2="-12.0188" y2="25.9505" gradientUnits="userSpaceOnUse">
<stop stop-color="#336BE6"/>
<stop offset="1" stop-color="#DDECF1"/>
</linearGradient>
</defs>
</svg>
